<svg width="43" height="44" viewBox="0 0 43 44" fill="none" xmlns="http://www.w3.org/2000/svg">
<path d="M11.625 1.16667C7.89582 3.5625 5.37499 7.79167 5.37499 12.625C5.37499 17.4583 7.89582 21.6875 11.6875 24.0833C5.29166 24.0833 0.166656 18.9583 0.166656 12.625C0.166656 9.58606 1.37387 6.67159 3.52272 4.52273C5.67158 2.37388 8.58605 1.16667 11.625 1.16667ZM35.7292 4.29167L38.7083 7.27083L6.27082 39.7083L3.29166 36.7292L35.7292 4.29167ZM22.8542 9.35417L19.7708 7.41667L16.7708 9.5L17.6458 5.95833L14.75 3.75L18.3958 3.5L19.6042 0.0625L21 3.45833L24.6042 3.52083L21.7917 5.875L22.8542 9.35417ZM15.9792 16.875L13.5625 15.3542L11.2292 16.9792L11.9375 14.2292L9.66666 12.5L12.5 12.3125L13.4375 9.625L14.5 12.2708L17.3333 12.3333L15.1458 14.1458L15.9792 16.875ZM35.5833 25.125C35.5833 28.1639 34.3761 31.0784 32.2273 33.2273C30.0784 35.3761 27.1639 36.5833 24.125 36.5833C21.5833 36.5833 19.2292 35.75 17.3333 34.3542L33.3542 18.3333C34.75 20.2292 35.5833 22.5833 35.5833 25.125ZM26.4167 38.8333L32.1875 36.4375L31.6875 43.4167L26.4167 38.8333ZM35.4375 33.2083L37.8333 27.4375L42.4167 32.7292L35.4375 33.2083ZM37.8333 22.875L35.4583 17.0833L42.4167 17.5833L37.8333 22.875ZM16.0625 36.4375L21.8333 38.8333L16.5625 43.3958L16.0625 36.4375Z" fill="#545454"/>
</svg>
